<svg width="500" height="500" viewBox="0 0 500 500" fill="none" xmlns="http://www.w3.org/2000/svg">
<path d="M107.507 342.113C108 342.359 108.537 342.487 109.075 342.487C109.613 342.487 110.151 342.359 110.643 342.113C131.84 331.483 149.626 316.895 163.511 298.763C180.194 276.956 186.467 255.96 190.206 243.415C197.49 218.991 200.07 193.39 197.864 167.309C197.718 165.586 196.323 164.219 194.6 164.109C180.323 163.207 166.255 160.344 152.8 155.594C137.83 150.316 124.219 142.977 111.191 133.149C109.942 132.21 108.229 132.21 106.97 133.149C93.9426 142.976 80.3313 150.316 65.3618 155.594C51.8964 160.344 37.8382 163.207 23.5618 164.109C21.8296 164.218 20.4439 165.577 20.2981 167.309C18.0918 193.393 20.6627 218.993 27.956 243.415C31.7031 255.96 37.9663 276.955 54.6511 298.763C68.5268 316.896 86.3109 331.484 107.507 342.113ZM27.0347 170.873C40.9104 169.733 54.5769 166.816 67.6864 162.194C82.3187 157.034 96.2299 149.667 109.066 140.295C121.903 149.667 135.815 157.034 150.446 162.194C163.556 166.816 177.223 169.733 191.098 170.873C192.803 195.04 190.241 218.755 183.476 241.41C179.638 254.274 173.831 273.721 157.932 294.506C145.059 311.345 128.621 324.984 109.074 335.057C89.5279 324.983 73.0903 311.345 60.2002 294.506C44.2915 273.72 38.4932 254.275 34.6558 241.41C27.9003 218.764 25.3389 195.052 27.0347 170.873Z" fill="#FF66C4"/>
<path d="M92.7797 272.85H402.31C421.443 272.85 437 253.376 437 229.425C437 205.474 421.443 186 402.31 186H92.7797C73.557 186 58 205.474 58 229.425C58 253.376 73.557 272.85 92.7797 272.85Z" fill="#213056"/>
<path d="M109.59 214.86V221.75H89.75V226.05H105.29V232.94H89.75V243.7H82V214.86H109.59Z" fill="#FF66C4"/>
<path d="M120.27 214.86H128.02V243.7H120.27V214.86Z" fill="#FF66C4"/>
<path d="M147.35 214.86L162.46 233.37V214.86H170.21V243.7H162.46L147.35 225.19V243.7H139.6V214.86H147.35Z" fill="#FF66C4"/>
<path d="M181.74 230.4V228.16C181.74 226.213 181.987 224.377 182.48 222.65C182.967 220.93 183.82 219.43 185.04 218.15C186.26 216.877 187.903 215.867 189.97 215.12C192.037 214.373 194.633 214 197.76 214H199.31C202.437 214 205.033 214.373 207.1 215.12C209.167 215.867 210.81 216.877 212.03 218.15C213.25 219.43 214.103 220.93 214.59 222.65C215.077 224.377 215.32 226.213 215.32 228.16V230.4C215.32 232.353 215.077 234.19 214.59 235.91C214.103 237.63 213.25 239.13 212.03 240.41C210.81 241.69 209.167 242.703 207.1 243.45C205.033 244.19 202.437 244.56 199.31 244.56H197.76C194.633 244.56 192.037 244.19 189.97 243.45C187.903 242.703 186.26 241.69 185.04 240.41C183.82 239.13 182.967 237.63 182.48 235.91C181.987 234.19 181.74 232.353 181.74 230.4ZM189.49 229.28C189.49 230.373 189.54 231.43 189.64 232.45C189.74 233.463 190.07 234.36 190.63 235.14C191.19 235.913 192.08 236.53 193.3 236.99C194.52 237.45 196.263 237.68 198.53 237.68C200.797 237.68 202.54 237.45 203.76 236.99C204.98 236.53 205.87 235.913 206.43 235.14C206.99 234.36 207.32 233.463 207.42 232.45C207.52 231.43 207.57 230.373 207.57 229.28C207.57 228.193 207.52 227.147 207.42 226.14C207.32 225.133 206.99 224.243 206.43 223.47C205.87 222.697 204.98 222.08 203.76 221.62C202.54 221.16 200.797 220.93 198.53 220.93C196.263 220.93 194.52 221.16 193.3 221.62C192.08 222.08 191.19 222.697 190.63 223.47C190.07 224.243 189.74 225.133 189.64 226.14C189.54 227.147 189.49 228.193 189.49 229.28Z" fill="#FF66C4"/>
<path d="M240.21 237.68C241.757 237.68 242.967 237.6 243.84 237.44C244.72 237.28 245.38 237.08 245.82 236.84C246.267 236.593 246.547 236.32 246.66 236.02C246.78 235.72 246.84 235.44 246.84 235.18C246.84 234.66 246.717 234.25 246.47 233.95C246.223 233.65 245.837 233.413 245.31 233.24C244.777 233.067 244.073 232.947 243.2 232.88C242.327 232.807 241.27 232.757 240.03 232.73C239.317 232.697 238.47 232.653 237.49 232.6C236.517 232.54 235.513 232.417 234.48 232.23C233.447 232.043 232.427 231.77 231.42 231.41C230.42 231.05 229.523 230.55 228.73 229.91C227.943 229.263 227.307 228.45 226.82 227.47C226.333 226.497 226.09 225.307 226.09 223.9V223.34C226.09 222.107 226.31 220.923 226.75 219.79C227.197 218.657 227.957 217.66 229.03 216.8C230.11 215.94 231.56 215.257 233.38 214.75C235.207 214.25 237.483 214 240.21 214H241.76C243.74 214 245.66 214.123 247.52 214.37C249.387 214.61 251.21 214.96 252.99 215.42V222.52C250.897 222.033 248.823 221.647 246.77 221.36C244.717 221.073 242.63 220.93 240.51 220.93C238.957 220.93 237.737 221.01 236.85 221.17C235.957 221.323 235.29 221.523 234.85 221.77C234.403 222.017 234.123 222.273 234.01 222.54C233.89 222.813 233.83 223.08 233.83 223.34C233.83 223.86 233.953 224.277 234.2 224.59C234.447 224.903 234.84 225.147 235.38 225.32C235.927 225.493 236.63 225.617 237.49 225.69C238.357 225.757 239.39 225.807 240.59 225.84C241.283 225.867 242.103 225.903 243.05 225.95C243.997 225.99 244.993 226.103 246.04 226.29C247.087 226.477 248.12 226.757 249.14 227.13C250.16 227.503 251.07 228.013 251.87 228.66C252.677 229.307 253.33 230.123 253.83 231.11C254.33 232.103 254.58 233.303 254.58 234.71V235.27C254.58 236.503 254.36 237.68 253.92 238.8C253.473 239.913 252.703 240.903 251.61 241.77C250.523 242.63 249.077 243.31 247.27 243.81C245.457 244.31 243.173 244.56 240.42 244.56H238.87C236.603 244.56 234.4 244.44 232.26 244.2C230.127 243.953 228.027 243.617 225.96 243.19V235.95C228.28 236.47 230.683 236.887 233.17 237.2C235.65 237.52 237.997 237.68 240.21 237.68Z" fill="#FF66C4"/>
<path d="M265.18 230.4V228.16C265.18 226.213 265.423 224.377 265.91 222.65C266.397 220.93 267.227 219.43 268.4 218.15C269.58 216.877 271.173 215.867 273.18 215.12C275.193 214.373 277.72 214 280.76 214H282.31C284.263 214 286.157 214.123 287.99 214.37C289.83 214.61 291.64 214.96 293.42 215.42V222.44C292.413 222.153 291.4 221.91 290.38 221.71C289.36 221.503 288.357 221.337 287.37 221.21C286.377 221.083 285.43 220.99 284.53 220.93C283.623 220.87 282.81 220.84 282.09 220.84C279.857 220.84 278.13 221.05 276.91 221.47C275.69 221.883 274.8 222.463 274.24 223.21C273.68 223.957 273.35 224.847 273.25 225.88C273.15 226.913 273.1 228.047 273.1 229.28C273.1 230.513 273.15 231.647 273.25 232.68C273.35 233.713 273.68 234.61 274.24 235.37C274.8 236.13 275.69 236.72 276.91 237.14C278.13 237.553 279.857 237.76 282.09 237.76C282.81 237.76 283.623 237.733 284.53 237.68C285.43 237.62 286.377 237.527 287.37 237.4C288.357 237.267 289.36 237.093 290.38 236.88C291.4 236.667 292.413 236.417 293.42 236.13V243.19C291.64 243.617 289.83 243.953 287.99 244.2C286.157 244.44 284.263 244.56 282.31 244.56H280.76C277.72 244.56 275.193 244.19 273.18 243.45C271.173 242.703 269.58 241.69 268.4 240.41C267.227 239.13 266.397 237.63 265.91 235.91C265.423 234.19 265.18 232.353 265.18 230.4Z" fill="#FF66C4"/>
<path d="M309.9 243.7H302.93V241.98L315.76 214.86H323.51L336.34 241.98V243.7H329.36L326.87 238.11H312.36L309.9 243.7ZM315.24 231.65H324.02L319.63 221.79L315.24 231.65Z" fill="#FF66C4"/>
<path d="M374.01 243.7H346.41V214.86H354.16V236.82H374.01V243.7Z" fill="#FF66C4"/>
<path d="M412.28 214.86V221.75H392.43V226.05H407.97V232.94H392.43V236.82H412.28V243.7H384.68V214.86H412.28Z" fill="#FF66C4"/>
</svg>
